<svg xmlns="http://www.w3.org/2000/svg" viewBox="0 0 256 256">
  <defs>
    <linearGradient id="bg" x1="28" y1="20" x2="228" y2="238" gradientUnits="userSpaceOnUse">
      <stop stop-color="#312e81"/><stop offset="1" stop-color="#15143f"/>
    </linearGradient>
    <linearGradient id="wave" x1="36" y1="0" x2="220" y2="0" gradientUnits="userSpaceOnUse">
      <stop stop-color="#22d3ee"/><stop offset=".55" stop-color="#a78bfa"/><stop offset="1" stop-color="#f472b6"/>
    </linearGradient>
  </defs>
  <rect x="12" y="12" width="232" height="232" rx="52" fill="url(#bg)"/>
  <path d="M67 61h47m-24 0v43l-32 57a20 20 0 0 0 17 30h59a20 20 0 0 0 17-30l-32-57V61" fill="none" stroke="#fff" stroke-width="12" stroke-linecap="round" stroke-linejoin="round"/>
  <path d="M67 153c15-9 28-8 40 0 13 9 28 9 45-2" fill="none" stroke="#f472b6" stroke-width="11" stroke-linecap="round"/>
  <path d="M40 112c19-21 34-24 50-10 18 15 33 15 51-8 17-22 37-22 75 7" fill="none" stroke="url(#wave)" stroke-width="12" stroke-linecap="round"/>
  <circle cx="185" cy="82" r="8" fill="#22d3ee"/><circle cx="205" cy="103" r="5" fill="#f472b6"/>
</svg>
