<?xml version="1.0" encoding="UTF-8" standalone="no"?>
<svg
   viewBox="0 0 150 155"
   version="1.1"
   id="svg57"
   sodipodi:docname="vectorized_019e3034-c0b8-73be-9f77-23fd01b87228.svg"
   inkscape:version="1.4.3 (0d15f75, 2025-12-25)"
   xmlns:inkscape="http://www.inkscape.org/namespaces/inkscape"
   xmlns:sodipodi="http://sodipodi.sourceforge.net/DTD/sodipodi-0.dtd"
   xmlns="http://www.w3.org/2000/svg"
   xmlns:svg="http://www.w3.org/2000/svg">
  <defs
     id="defs57" />
  <sodipodi:namedview
     id="namedview57"
     pagecolor="#ffffff"
     bordercolor="#999999"
     borderopacity="1"
     inkscape:showpageshadow="2"
     inkscape:pageopacity="0"
     inkscape:pagecheckerboard="0"
     inkscape:deskcolor="#d1d1d1"
     inkscape:zoom="4"
     inkscape:cx="79.875"
     inkscape:cy="82.125"
     inkscape:window-width="1920"
     inkscape:window-height="1009"
     inkscape:window-x="-8"
     inkscape:window-y="574"
     inkscape:window-maximized="1"
     inkscape:current-layer="svg57" />
  <!-- SVG created with Arrow, by QuiverAI (https://quiver.ai) -->
  <style
     type="text/css"
     id="style1">.cls-0 {fill:#000105;}
.cls-1 {fill:none;stroke:#E6E6E5;stroke-width:0.75;stroke-miterlimit:10;}
.cls-2 {fill:#FFFFFF;}
.cls-3 {fill:#13F1FC;}
.cls-4 {fill:#00C8D2;}
.cls-5 {fill:#8A6FF7;}
.cls-6 {fill:#B448F7;}
.cls-7 {fill:none;stroke:url(#SVGID_1_);stroke-width:3.4;stroke-linecap:round;stroke-linejoin:round;stroke-miterlimit:10;}
.cls-8 {fill:none;stroke:#E6E6E5;stroke-width:0.75;stroke-miterlimit:10;}</style>
  <path
     class="cls-0"
     d="M 125,154.1 H 25 c -13.3,0 -25,-11 -25,-25.3 V 26.2 C 0,13.4 11.7,1.1 25,1.1 h 100.8 c 12.5,0 24.2,11.7 24.2,25.1 v 102.6 c 0,14.3 -11.7,25.3 -25,25.3 z"
     id="path1"
     sodipodi:insensitive="true" />
  <line
     class="cls-8"
     x1="15.3"
     x2="135.6"
     y1="128.7"
     y2="128.7"
     id="line1" />
  <line
     class="cls-1"
     x1="32.9"
     x2="32.9"
     y1="125.1"
     y2="132.1"
     id="line2" />
  <line
     class="cls-1"
     x1="55.5"
     x2="55.5"
     y1="125.1"
     y2="132.1"
     id="line3" />
  <line
     class="cls-1"
     x1="77.1"
     x2="77.1"
     y1="125.1"
     y2="132.1"
     id="line4" />
  <line
     class="cls-1"
     x1="98.6"
     x2="98.6"
     y1="125.1"
     y2="132.1"
     id="line5" />
  <line
     class="cls-1"
     x1="120.3"
     x2="120.3"
     y1="125.1"
     y2="132.1"
     id="line6" />
  <path
     class="cls-2"
     d="m60 144 2.5-5.8-0.3-0.8c-0.3-0.9-0.7-1-1.8-0.9l-0.1-0.9c1.6-0.3 2.2 0.2 2.7 1.4l2.2 5.4c0.3 0.8 0.7 0.9 1.3 0.7l0.1 0.9c-1.4 0.3-1.9 0-2.3-1.2l-1.4-3.4-1.8 4.6h-1.1z"
     id="path6" />
  <path
     class="cls-2"
     d="m72.3 146.2c-1-1.5-1.7-3.2-1.7-5.3s0.7-3.9 1.8-5.5l0.7 0.3c-0.9 1.2-1.6 3-1.6 5.1s0.7 3.9 1.5 5.1l-0.7 0.3z"
     id="path7" />
  <path
     class="cls-2"
     d="m77.5 138.4c0.9 0.1 1.1 0.9 1.2 1.3v4.3h-1v-3.4c0-1-0.5-1.3-1-1.4-0.8 0-1.5 0.5-1.5 1.7v3.2h-1v-5.6h0.9v0.9c0.4-0.8 1.4-1.1 2.4-1z"
     id="path8" />
  <path
     class="cls-2"
     d="m86.5 138.4c0.9 0.1 1.6 0.8 1.7 1.9v3.7h-0.9v-3.4c0-0.9-0.4-1.4-1-1.4-0.8 0-1.5 0.5-1.7 1.4v3.5h-0.8v-3.5c0-0.9-0.4-1.4-1-1.4-0.7 0-1.4 0.4-1.7 1.3v3.6h-0.8v-5.6h0.8v0.9c0.3-0.7 0.9-1.1 1.6-1.1s1.5 0.4 1.7 1.3c0.4-0.8 1.1-1.3 2.1-1.2z"
     id="path9" />
  <path
     class="cls-2"
     d="m89.7 135.4c1 1.4 2 3.2 2 5.3 0 2.2-0.6 3.8-1.6 5.5l-0.7-0.3c0.9-1.3 1.4-3.1 1.4-5.2s-0.6-3.9-1.4-5l0.3-0.3z"
     id="path10" />
  <path
     class="cls-3"
     d="m 4.1933983,35.371403 c 0,-4.354108 1.4513695,-8.546953 4.9991614,-8.546953 3.3865293,0 4.8378993,3.386528 4.8378993,8.063164 0,4.515371 -1.291022,8.143816 -4.8378993,8.224427 -3.5505382,0.0807 -4.9991614,-3.225266 -4.9991614,-7.740638 z m 7.9019007,-0.322526 c -0.08257,-3.550495 -0.967579,-6.611795 -3.0640023,-6.611795 -1.9351594,0 -3.0640023,3.060339 -3.0640023,6.611795 0,3.390367 0.6411231,6.366984 3.0640023,6.450531 2.2563443,0.07781 3.1427383,-3.064918 3.0640023,-6.450531 z"
     id="path11"
     sodipodi:nodetypes="ssssssssss"
     style="fill:#ff28c7;stroke-width:1.61263;fill-opacity:1" />
  <path
     class="cls-3"
     d="m 18.616975,41.500855 h 2.902739 V 29.567372 l -2.902739,2.096422 -0.48379,-1.612632 3.709056,-2.902739 h 1.612633 v 14.352432 h 2.418949 v 1.612632 h -7.256848 z"
     id="path12"
     style="fill:#ffffff;stroke-width:1.61263" />
  <rect
     class="cls-3"
     x="60.3"
     y="28.5"
     width="5.1"
     height="5.3"
     id="rect42" />
  <rect
     class="cls-3"
     x="71.9"
     y="19.6"
     width="5.6"
     height="5.7"
     id="rect43" />
  <rect
     class="cls-3"
     x="68.3"
     y="37.1"
     width="6.5"
     height="6.4"
     id="rect44" />
  <rect
     class="cls-3"
     x="67"
     y="60.6"
     width="6.5"
     height="6.6"
     id="rect45" />
  <rect
     class="cls-3"
     x="65.2"
     y="87.2"
     width="5"
     height="4.9"
     id="rect46" />
  <rect
     class="cls-3"
     x="58.5"
     y="97.9"
     width="5.1"
     height="5.1"
     id="rect47" />
  <rect
     class="cls-3"
     x="56.8"
     y="76.3"
     width="4.4"
     height="4.1"
     id="rect48" />
  <rect
     class="cls-4"
     x="56"
     y="83"
     width="4.1"
     height="3.9"
     id="rect49" />
  <rect
     class="cls-3"
     x="63.3"
     y="71.8"
     width="3.7"
     height="3.8"
     id="rect50" />
  <rect
     class="cls-3"
     x="60.8"
     y="46.8"
     width="4.2"
     height="4.2"
     id="rect51" />
  <rect
     class="cls-4"
     x="62.4"
     y="54"
     width="3.9"
     height="4.1"
     id="rect52" />
  <rect
     class="cls-4"
     x="55"
     y="108.8"
     width="2.4"
     height="2.5"
     id="rect53" />
  <rect
     class="cls-5"
     x="77.4"
     y="47.1"
     width="4.9"
     height="5"
     id="rect54" />
  <rect
     class="cls-6"
     x="82.8"
     y="29.2"
     width="5.2"
     height="5.3"
     id="rect55" />
  <rect
     class="cls-3"
     x="72.2"
     y="78.1"
     width="4.8"
     height="4.9"
     id="rect56"
     style="fill:#8a6ff7;fill-opacity:1" />
  <linearGradient
     id="SVGID_1_"
     x1="57.26"
     x2="136.4"
     y1="78.95"
     y2="78.95"
     gradientUnits="userSpaceOnUse">
    <stop
       stop-color="#01F7FF"
       offset=".2135"
       id="stop56" />
    <stop
       stop-color="#FF28C7"
       offset=".8823"
       id="stop57" />
  </linearGradient>
  <path
     class="cls-7"
     d="m 57.9,117.6 c 18.7,0.2 24,-7.4 29.1,-33 4.7,-23 6.3,-42.3 12.9,-42.3 9.7,-0.4 7.4,44.8 19,65.7 3.7,6.5 8,9.9 16.7,9.9"
     id="path57"
     sodipodi:insensitive="true" />
  <path
     class="cls-3"
     d="m 29.976548,35.371403 c 0,-4.354108 1.451369,-8.546953 4.999162,-8.546953 3.386528,0 4.837898,3.386528 4.837898,8.063164 0,4.515371 -1.291022,8.143816 -4.837898,8.224427 -3.550539,0.0807 -4.999162,-3.225266 -4.999162,-7.740638 z m 7.901901,-0.322526 c -0.08257,-3.550495 -0.96758,-6.611795 -3.064003,-6.611795 -1.935159,0 -3.064002,3.060339 -3.064002,6.611795 0,3.390367 0.641123,6.366984 3.064002,6.450531 2.256344,0.07781 3.142738,-3.064918 3.064003,-6.450531 z"
     id="path3"
     sodipodi:nodetypes="ssssssssss"
     style="fill:#ffffff;stroke-width:1.61263" />
  <path
     class="cls-3"
     d="m 44.400123,41.500855 h 2.902739 V 29.567372 l -2.902739,2.096422 -0.48379,-1.612632 3.709055,-2.902739 h 1.612633 v 14.352432 h 2.418949 v 1.612632 h -7.256847 z"
     id="path4"
     style="fill:#ffffff;stroke-width:1.61263" />
  <path
     class="cls-3"
     d="m 30.325952,60.358005 c 0,-4.354108 1.451369,-8.546953 4.999162,-8.546953 3.386528,0 4.837898,3.386528 4.837898,8.063164 0,4.515371 -1.291022,8.143816 -4.837898,8.224427 -3.550539,0.0807 -4.999162,-3.225266 -4.999162,-7.740638 z m 7.901901,-0.322526 c -0.08257,-3.550495 -0.96758,-6.611795 -3.064003,-6.611795 -1.935159,0 -3.064002,3.060339 -3.064002,6.611795 0,3.390367 0.641123,6.366984 3.064002,6.450531 2.256344,0.07781 3.142738,-3.064918 3.064003,-6.450531 z"
     id="path45"
     sodipodi:nodetypes="ssssssssss"
     style="fill:#ffffff;stroke-width:1.61263" />
  <path
     class="cls-3"
     d="m 44.400123,66.487457 h 2.902739 V 54.553974 l -2.902739,2.096422 -0.48379,-1.612632 3.709055,-2.902739 h 1.612633 v 14.352432 h 2.418949 v 1.612632 h -7.256847 z"
     id="path46"
     style="fill:#ffffff;stroke-width:1.61263" />
  <path
     class="cls-3"
     d="m 16.735569,60.358005 c 0,-4.354108 1.45137,-8.546953 4.999163,-8.546953 3.386529,0 4.837899,3.386528 4.837899,8.063164 0,4.515371 -1.291022,8.143816 -4.837899,8.224427 -3.550539,0.0807 -4.999162,-3.225266 -4.999163,-7.740638 z m 7.901901,-0.322526 c -0.08257,-3.550495 -0.967579,-6.611795 -3.064003,-6.611795 -1.935159,0 -3.064002,3.060339 -3.064002,6.611795 0,3.390367 0.641123,6.366984 3.064002,6.450531 2.256345,0.07781 3.142739,-3.064918 3.064003,-6.450531 z"
     id="path48"
     sodipodi:nodetypes="ssssssssss"
     style="fill:#ff28c7;stroke-width:1.61263;fill-opacity:1" />
  <path
     class="cls-3"
     d="m 5.7253998,66.487457 h 2.902739 V 54.553974 l -2.902739,2.096422 -0.48379,-1.612632 3.709056,-2.902739 h 1.6126332 v 14.352432 h 2.418949 v 1.612632 H 5.7253998 Z"
     id="path49"
     style="fill:#ffffff;stroke-width:1.61263" />
  <path
     class="cls-3"
     d="m 4.1933983,85.668581 c 0,-4.354108 1.4513695,-8.546953 4.9991614,-8.546953 3.3865293,0 4.8378993,3.386528 4.8378993,8.063164 0,4.515371 -1.291022,8.143816 -4.8378993,8.224427 -3.5505382,0.0807 -4.9991614,-3.225266 -4.9991614,-7.740638 z M 12.095299,85.346055 C 12.012729,81.79556 11.12772,78.73426 9.0312967,78.73426 c -1.9351594,0 -3.0640023,3.060339 -3.0640023,6.611795 0,3.390367 0.6411231,6.366984 3.0640023,6.450531 2.2563443,0.07781 3.1427383,-3.064918 3.0640023,-6.450531 z"
     id="path52"
     sodipodi:nodetypes="ssssssssss"
     style="fill:#ffffff;stroke-width:1.61263" />
  <path
     class="cls-3"
     d="m 32.55676,91.798033 h 2.902739 V 79.86455 l -2.902739,2.096422 -0.48379,-1.612632 3.709056,-2.902739 h 1.612633 v 14.352432 h 2.418949 v 1.612632 H 32.55676 Z"
     id="path53"
     style="fill:#ff28c7;stroke-width:1.61263;fill-opacity:1" />
  <path
     class="cls-3"
     d="m 18.133184,85.668581 c 0,-4.354108 1.451369,-8.546953 4.999162,-8.546953 3.386528,0 4.837898,3.386528 4.837898,8.063164 0,4.515371 -1.291022,8.143816 -4.837898,8.224427 -3.550539,0.0807 -4.999162,-3.225266 -4.999162,-7.740638 z m 7.901901,-0.322526 c -0.08257,-3.550495 -0.96758,-6.611795 -3.064003,-6.611795 -1.935159,0 -3.064002,3.060339 -3.064002,6.611795 0,3.390367 0.641123,6.366984 3.064002,6.450531 2.256344,0.07781 3.142738,-3.064918 3.064003,-6.450531 z"
     id="path54"
     sodipodi:nodetypes="ssssssssss"
     style="fill:#ffffff;stroke-width:1.61263" />
  <path
     class="cls-3"
     d="m 44.400123,91.798033 h 2.902739 V 79.86455 l -2.902739,2.096422 -0.48379,-1.612632 3.709055,-2.902739 h 1.612633 v 14.352432 h 2.418949 v 1.612632 h -7.256847 z"
     id="path55"
     style="fill:#ffffff;stroke-width:1.61263" />
  <path
     class="cls-3"
     d="m 42.868121,110.65519 c 0,-4.35411 1.451369,-8.54696 4.999161,-8.54696 3.38653,0 4.8379,3.38653 4.8379,8.06317 0,4.51537 -1.291022,8.14381 -4.8379,8.22442 -3.550538,0.0807 -4.999161,-3.22526 -4.999161,-7.74063 z m 7.901901,-0.32253 c -0.08257,-3.5505 -0.967579,-6.6118 -3.064003,-6.6118 -1.935159,0 -3.064002,3.06034 -3.064002,6.6118 0,3.39037 0.641123,6.36698 3.064002,6.45053 2.256345,0.0778 3.142739,-3.06492 3.064003,-6.45053 z"
     id="path56"
     sodipodi:nodetypes="ssssssssss"
     style="fill:#ff28c7;stroke-width:1.61263;fill-opacity:1" />
  <path
     class="cls-3"
     d="m 5.7253996,116.78464 h 2.902739 v -11.93349 l -2.902739,2.09643 -0.48379,-1.61264 3.709056,-2.90274 h 1.6126334 v 14.35244 h 2.418949 v 1.61263 H 5.7253996 Z"
     id="path58"
     style="fill:#ffffff;stroke-width:1.61263" />
  <path
     class="cls-3"
     d="m 28.928336,110.65519 c 0,-4.35411 1.451369,-8.54696 4.999162,-8.54696 3.386528,0 4.837898,3.38653 4.837898,8.06317 0,4.51537 -1.291022,8.14381 -4.837898,8.22442 -3.550539,0.0807 -4.999162,-3.22526 -4.999162,-7.74063 z m 7.901901,-0.32253 c -0.08257,-3.5505 -0.96758,-6.6118 -3.064003,-6.6118 -1.935159,0 -3.064002,3.06034 -3.064002,6.6118 0,3.39037 0.641123,6.36698 3.064002,6.45053 2.256344,0.0778 3.142738,-3.06492 3.064003,-6.45053 z"
     id="path59"
     sodipodi:nodetypes="ssssssssss"
     style="fill:#ffffff;stroke-width:1.61263" />
  <path
     class="cls-3"
     d="m 17.568763,116.78464 h 2.902739 v -11.93349 l -2.902739,2.09643 -0.48379,-1.61264 3.709055,-2.90274 h 1.612633 v 14.35244 h 2.418949 v 1.61263 h -7.256847 z"
     id="path60"
     style="fill:#ffffff;stroke-width:1.61263" />
</svg>
